<svg width="54" height="54" viewBox="0 0 54 54" fill="none" xmlns="http://www.w3.org/2000/svg">
<path d="M32.0868 5.62266C32.5692 5.62266 33.0516 5.64702 33.534 5.69673L26.0954 13.1353L28.6399 25.3608L40.8654 27.9053L48.2943 20.4765C48.6646 24.2255 47.5556 27.8469 45.0315 30.3709C42.8768 32.5246 39.8763 33.7116 36.5804 33.7116C35.0621 33.7116 33.5243 33.466 32.0118 32.9817L29.1817 32.0754L27.0806 34.1765L14.3815 46.8746C13.4128 47.8433 12.1245 48.3773 10.7533 48.3773C9.38314 48.3773 8.09481 47.8433 7.12515 46.8746C6.15646 45.9059 5.62242 44.6176 5.62242 43.2464C5.62242 41.8762 6.15646 40.5879 7.12515 39.6182L19.8243 26.9191L21.9254 24.818L21.0191 21.988C19.4384 17.051 20.4139 12.1832 23.6298 8.96726C25.7874 6.81062 28.7909 5.62266 32.0868 5.62266ZM32.0868 0.75C27.6517 0.75 23.3862 2.32192 20.1849 5.52326C15.5334 10.1747 14.3299 17.0754 16.3793 23.4751L3.68017 36.1742C-0.226725 40.0811 -0.226725 46.4146 3.68017 50.3206C5.63314 52.2735 8.19323 53.25 10.7533 53.25C13.3134 53.25 15.8735 52.2735 17.8265 50.3206L30.5256 37.6214C32.5224 38.2607 34.5689 38.5833 36.5804 38.5833C41.0135 38.5833 45.2771 37.0153 48.4775 33.8159C54.2058 28.0876 54.7174 18.9504 50.3408 11.539L39.2808 22.599L32.7583 21.2415L31.4007 14.7199L42.4607 3.65995C39.1921 1.7294 35.5873 0.75 32.0868 0.75Z" fill="#7EBD2E"/>
</svg>
