<svg width="57" height="54" viewBox="0 0 57 54" fill="none" xmlns="http://www.w3.org/2000/svg">
<path d="M41.8915 54H29.5581C27.1518 54.0022 24.7646 53.5731 22.5096 52.7332L12.9019 49.1648C12.3757 48.9643 11.95 48.5639 11.7176 48.0509C11.4852 47.538 11.4649 46.954 11.6611 46.4261C11.8572 45.8982 12.254 45.4692 12.765 45.2325C13.276 44.9958 13.8598 44.9706 14.3893 45.1623L23.9956 48.7307C25.7755 49.3921 27.6593 49.7295 29.5581 49.7271H41.8915C42.4279 49.7271 42.9424 49.514 43.3217 49.1347C43.701 48.7553 43.9141 48.2409 43.9141 47.7045C43.9141 47.168 43.701 46.6536 43.3217 46.2743C42.9424 45.895 42.4279 45.6819 41.8915 45.6819C41.3253 45.6819 40.7822 45.4569 40.3818 45.0565C39.9814 44.6561 39.7565 44.1131 39.7565 43.5468C39.7565 42.9806 39.9814 42.4375 40.3818 42.0371C40.7822 41.6367 41.3253 41.4118 41.8915 41.4118H44.8023C45.3387 41.4118 45.8531 41.1987 46.2325 40.8194C46.6118 40.4401 46.8249 39.9256 46.8249 39.3892C46.8249 38.8528 46.6118 38.3383 46.2325 37.959C45.8531 37.5797 45.3387 37.3666 44.8023 37.3666C44.236 37.3666 43.693 37.1417 43.2926 36.7413C42.8922 36.3409 42.6672 35.7978 42.6672 35.2316C42.6672 34.6653 42.8922 34.1223 43.2926 33.7219C43.693 33.3215 44.236 33.0965 44.8023 33.0965H47.7116C48.1117 33.0966 48.5029 32.9781 48.8356 32.7558C49.1683 32.5336 49.4277 32.2177 49.5808 31.848C49.7339 31.4784 49.774 31.0716 49.6959 30.6792C49.6178 30.2868 49.4251 29.9263 49.1421 29.6434C48.9548 29.4548 48.7319 29.3053 48.4863 29.2037C48.2408 29.102 47.9774 29.0502 47.7116 29.0513C47.1454 29.0513 46.6023 28.8264 46.2019 28.426C45.8015 28.0256 45.5766 27.4825 45.5766 26.9163C45.5766 26.35 45.8015 25.807 46.2019 25.4066C46.6023 25.0062 47.1454 24.7813 47.7116 24.7813H50.6224C51.0219 24.78 51.4121 24.6604 51.7437 24.4376C52.0753 24.2148 52.3336 23.8988 52.4858 23.5295C52.6381 23.1601 52.6775 22.7539 52.5992 22.3622C52.5209 21.9704 52.3283 21.6106 52.0457 21.3282C51.8594 21.1402 51.6377 20.991 51.3934 20.8891C51.1491 20.7873 50.8871 20.7348 50.6224 20.7346H30.4619C30.0904 20.7351 29.7252 20.6386 29.4023 20.4547C29.0795 20.2707 28.8103 20.0057 28.6213 19.6859C28.4322 19.366 28.3299 19.0024 28.3245 18.6309C28.319 18.2594 28.4106 17.8929 28.5902 17.5677C29.2388 16.2517 29.6805 14.8436 29.8997 13.3929C30.3822 10.2801 29.7872 7.46608 28.1319 5.02928C27.9188 4.72578 27.6147 4.49792 27.2635 4.37865C26.9124 4.25938 26.5324 4.25488 26.1785 4.36581C25.8247 4.47674 25.5153 4.69735 25.295 4.99573C25.0748 5.29411 24.9552 5.65479 24.9535 6.02564C25.0233 13.3389 21.6442 18.6537 15.1821 21.3979C14.9231 21.5138 14.6435 21.5769 14.3597 21.5834C14.076 21.59 13.7938 21.5399 13.5296 21.4361C13.2655 21.3323 13.0247 21.1769 12.8213 20.9789C12.6179 20.781 12.456 20.5444 12.3451 20.2832C12.2342 20.0219 12.1765 19.7412 12.1754 19.4574C12.1743 19.1736 12.2298 18.8924 12.3386 18.6303C12.4474 18.3681 12.6074 18.1303 12.8093 17.9308C13.0111 17.7312 13.2506 17.5739 13.514 17.468C16.1785 16.3293 18.12 14.6569 19.2857 12.4749C20.2365 10.6943 20.7091 8.53929 20.6849 6.06976C20.6635 3.37107 22.3274 1.09369 24.9151 0.28807C27.5027 -0.517552 30.1545 0.399093 31.6689 2.63092C35.186 7.80626 34.5512 13.178 33.5876 16.4674H50.6224C52.0423 16.4676 53.4203 16.948 54.5327 17.8304C55.645 18.7129 56.4262 19.9457 56.7492 21.3283C57.0723 22.7109 56.9183 24.1622 56.3122 25.4462C55.7061 26.7302 54.6835 27.7715 53.4108 28.4009C54.1083 29.8922 54.1944 31.5973 53.6506 33.1514C53.1069 34.7054 51.9765 35.9849 50.5014 36.7161C51.1993 38.2078 51.2854 39.9134 50.7414 41.4678C50.1973 43.0222 49.0664 44.3019 47.5906 45.0328C48.04 45.9917 48.2403 47.0485 48.1729 48.1053C48.1054 49.1622 47.7725 50.1849 47.2049 51.0789C46.6372 51.9729 45.8533 52.7093 44.9255 53.2199C43.9977 53.7305 42.9562 53.9988 41.8972 54H41.8915Z" fill="#7EBD2E"/>
<path d="M14.3574 50.8387H2.13504C1.56879 50.8387 1.02574 50.6137 0.625339 50.2133C0.224941 49.8129 0 49.2699 0 48.7036V19.4351C0 18.8688 0.224941 18.3258 0.625339 17.9254C1.02574 17.525 1.56879 17.3 2.13504 17.3H14.3574C14.9237 17.3 15.4667 17.525 15.8671 17.9254C16.2675 18.3258 16.4925 18.8688 16.4925 19.4351V48.7036C16.4925 49.2699 16.2675 49.8129 15.8671 50.2133C15.4667 50.6137 14.9237 50.8387 14.3574 50.8387ZM4.27435 46.5686H12.2224V21.5701H4.27008L4.27435 46.5686Z" fill="#7EBD2E"/>
</svg>
