<svg width="58" height="58" viewBox="0 0 58 58" fill="none" xmlns="http://www.w3.org/2000/svg">
<path d="M30.8751 57.1249H27.1251C25.7432 57.1349 24.406 56.6358 23.3685 55.7228C22.331 54.8098 21.6659 53.5469 21.5001 52.1749C20.2419 51.7772 19.0189 51.2755 17.8439 50.6749C16.7559 51.5352 15.3884 51.9632 14.0041 51.8767C12.6198 51.7901 11.3163 51.1952 10.3439 50.2062L7.7939 47.5624C6.80484 46.59 6.20991 45.2865 6.12339 43.9022C6.03688 42.5178 6.46486 41.1504 7.32515 40.0624C6.72928 38.9176 6.22762 37.7261 5.82515 36.4999C4.45315 36.3341 3.19021 35.669 2.27724 34.6316C1.36426 33.5941 0.865165 32.2568 0.875147 30.8749V27.1249C0.865165 25.743 1.36426 24.4057 2.27724 23.3682C3.19021 22.3308 4.45315 21.6657 5.82515 21.4999C6.22281 20.2416 6.72455 19.0187 7.32515 17.8437C6.46486 16.7557 6.03688 15.3882 6.12339 14.0039C6.20991 12.6196 6.80484 11.3161 7.7939 10.3437L10.4376 7.79365C11.41 6.80459 12.7136 6.20967 14.0979 6.12315C15.4822 6.03663 16.8497 6.46462 17.9376 7.3249C19.0825 6.72904 20.2739 6.22738 21.5001 5.8249C21.6659 4.45291 22.331 3.18996 23.3685 2.27699C24.406 1.36402 25.7432 0.864921 27.1251 0.874903H30.8751C32.2571 0.864921 33.5943 1.36402 34.6318 2.27699C35.6693 3.18996 36.3343 4.45291 36.5001 5.8249C37.7584 6.22257 38.9814 6.7243 40.1564 7.3249C41.2444 6.46462 42.6118 6.03663 43.9962 6.12315C45.3805 6.20967 46.684 6.80459 47.6564 7.79365L50.2064 10.4374C51.1955 11.4098 51.7904 12.7133 51.8769 14.0976C51.9634 15.482 51.5354 16.8494 50.6751 17.9374C51.2757 19.1124 51.7775 20.3354 52.1751 21.5937C53.5311 21.7575 54.7812 22.4091 55.692 23.4269C56.6028 24.4447 57.1122 25.7591 57.1251 27.1249V30.8749C57.1351 32.2568 56.636 33.5941 55.7231 34.6316C54.8101 35.669 53.5471 36.3341 52.1751 36.4999C51.7775 37.7582 51.2757 38.9811 50.6751 40.1562C51.5354 41.2441 51.9634 42.6116 51.8769 43.9959C51.7904 45.3802 51.1955 46.6838 50.2064 47.6562L47.5626 50.2062C46.5902 51.1952 45.2867 51.7901 43.9024 51.8767C42.5181 51.9632 41.1506 51.5352 40.0626 50.6749C38.8876 51.2755 37.6647 51.7772 36.4064 52.1749C36.2426 53.5309 35.5909 54.7809 34.5732 55.6918C33.5554 56.6026 32.2409 57.112 30.8751 57.1249ZM17.5814 46.4937C17.9187 46.4878 18.2506 46.5789 18.5376 46.7561C20.1955 47.7312 21.9815 48.4696 23.8439 48.9499C24.2564 49.0562 24.6205 49.2998 24.8761 49.6406C25.1317 49.9814 25.2636 50.3991 25.2501 50.8249V51.4999C25.2501 51.9972 25.4477 52.4741 25.7993 52.8257C26.151 53.1774 26.6279 53.3749 27.1251 53.3749H30.8751C31.3724 53.3749 31.8493 53.1774 32.201 52.8257C32.5526 52.4741 32.7501 51.9972 32.7501 51.4999V50.7687C32.7367 50.3429 32.8686 49.9252 33.1242 49.5844C33.3798 49.2435 33.7439 48.9999 34.1564 48.8937C36.0188 48.4134 37.8048 47.675 39.4626 46.6999C39.8189 46.4901 40.2345 46.4039 40.6448 46.4548C41.0552 46.5056 41.4372 46.6907 41.7314 46.9812L42.2564 47.5062C42.4307 47.6819 42.6381 47.8214 42.8666 47.9166C43.0951 48.0118 43.3401 48.0608 43.5876 48.0608C43.8352 48.0608 44.0802 48.0118 44.3087 47.9166C44.5372 47.8214 44.7446 47.6819 44.9189 47.5062L47.5626 44.8624C47.7384 44.6881 47.8779 44.4807 47.9731 44.2522C48.0683 44.0237 48.1173 43.7787 48.1173 43.5312C48.1173 43.2836 48.0683 43.0386 47.9731 42.8101C47.8779 42.5816 47.7384 42.3742 47.5626 42.1999L47.0376 41.6749C46.7472 41.3807 46.5621 40.9987 46.5113 40.5884C46.4604 40.178 46.5466 39.7624 46.7564 39.4062C47.7315 37.7483 48.4699 35.9623 48.9501 34.0999C49.0564 33.6874 49.3 33.3233 49.6408 33.0677C49.9817 32.8121 50.3993 32.6802 50.8251 32.6937H51.5001C51.9974 32.6937 52.4743 32.4961 52.826 32.1445C53.1776 31.7928 53.3751 31.3159 53.3751 30.8187V27.1249C53.3751 26.6276 53.1776 26.1507 52.826 25.7991C52.4743 25.4474 51.9974 25.2499 51.5001 25.2499H50.7689C50.3431 25.2634 49.9254 25.1314 49.5846 24.8758C49.2438 24.6202 49.0002 24.2562 48.8939 23.8437C48.4136 21.9813 47.6752 20.1952 46.7001 18.5374C46.4903 18.1811 46.4041 17.7655 46.455 17.3552C46.5059 16.9449 46.6909 16.5629 46.9814 16.2687L47.5064 15.7437C47.6821 15.5693 47.8216 15.362 47.9168 15.1335C48.012 14.905 48.061 14.6599 48.061 14.4124C48.061 14.1649 48.012 13.9198 47.9168 13.6913C47.8216 13.4628 47.6821 13.2555 47.5064 13.0812L44.9189 10.4374C44.7446 10.2617 44.5372 10.1222 44.3087 10.027C44.0802 9.93179 43.8352 9.88278 43.5876 9.88278C43.3401 9.88278 43.0951 9.93179 42.8666 10.027C42.6381 10.1222 42.4307 10.2617 42.2564 10.4374L41.7314 10.9624C41.4372 11.2529 41.0552 11.4379 40.6448 11.4888C40.2345 11.5397 39.8189 11.4535 39.4626 11.2437C37.8048 10.2686 36.0188 9.53017 34.1564 9.0499C33.7439 8.94361 33.3798 8.70001 33.1242 8.3592C32.8686 8.01839 32.7367 7.6007 32.7501 7.1749V6.4999C32.7501 6.00262 32.5526 5.52571 32.201 5.17408C31.8493 4.82245 31.3724 4.6249 30.8751 4.6249H27.1251C26.6279 4.6249 26.151 4.82245 25.7993 5.17408C25.4477 5.52571 25.2501 6.00262 25.2501 6.4999V7.23115C25.2636 7.65695 25.1317 8.07464 24.8761 8.41545C24.6205 8.75626 24.2564 8.99986 23.8439 9.10615C21.9815 9.58642 20.1955 10.3248 18.5376 11.2999C18.1814 11.5097 17.7658 11.5959 17.3554 11.545C16.9451 11.4942 16.5631 11.3091 16.2689 11.0187L15.7439 10.4374C15.5696 10.2617 15.3622 10.1222 15.1337 10.027C14.9052 9.93179 14.6602 9.88278 14.4126 9.88278C14.1651 9.88278 13.9201 9.93179 13.6916 10.027C13.4631 10.1222 13.2557 10.2617 13.0814 10.4374L10.4376 13.0812C10.2619 13.2555 10.1224 13.4628 10.0272 13.6913C9.93203 13.9198 9.88302 14.1649 9.88302 14.4124C9.88302 14.6599 9.93203 14.905 10.0272 15.1335C10.1224 15.362 10.2619 15.5693 10.4376 15.7437L10.9626 16.2687C11.2531 16.5629 11.4382 16.9449 11.489 17.3552C11.5399 17.7655 11.4537 18.1811 11.2439 18.5374C10.2688 20.1952 9.53041 21.9813 9.05015 23.8437C8.94386 24.2562 8.70025 24.6202 8.35944 24.8758C8.01864 25.1314 7.60094 25.2634 7.17515 25.2499H6.50015C6.00287 25.2499 5.52595 25.4474 5.17432 25.7991C4.82269 26.1507 4.62515 26.6276 4.62515 27.1249V30.8749C4.62515 31.3722 4.82269 31.8491 5.17432 32.2007C5.52595 32.5524 6.00287 32.7499 6.50015 32.7499H7.2314C7.65719 32.7364 8.07488 32.8684 8.41569 33.124C8.7565 33.3796 9.00011 33.7436 9.1064 34.1562C9.58666 36.0185 10.3251 37.8046 11.3001 39.4624C11.51 39.8187 11.5961 40.2343 11.5453 40.6446C11.4944 41.0549 11.3094 41.4369 11.0189 41.7312L10.4939 42.2562C10.3182 42.4305 10.1787 42.6378 10.0835 42.8663C9.98828 43.0948 9.93927 43.3399 9.93927 43.5874C9.93927 43.8349 9.98828 44.08 10.0835 44.3085C10.1787 44.537 10.3182 44.7443 10.4939 44.9187L13.0814 47.5624C13.2557 47.7381 13.4631 47.8776 13.6916 47.9728C13.9201 48.068 14.1651 48.117 14.4126 48.117C14.6602 48.117 14.9052 48.068 15.1337 47.9728C15.3622 47.8776 15.5696 47.7381 15.7439 47.5624L16.2689 47.0374C16.6181 46.691 17.0895 46.4957 17.5814 46.4937Z" fill="#7EBD2E"/>
<path d="M29 42.1249C26.4041 42.1249 23.8665 41.3551 21.7081 39.9129C19.5498 38.4707 17.8675 36.4209 16.8741 34.0226C15.8807 31.6243 15.6208 28.9853 16.1272 26.4393C16.6336 23.8933 17.8837 21.5547 19.7192 19.7191C21.5548 17.8835 23.8934 16.6335 26.4394 16.1271C28.9854 15.6206 31.6244 15.8806 34.0227 16.874C36.421 17.8674 38.4709 19.5496 39.913 21.708C41.3552 23.8664 42.125 26.404 42.125 28.9999C42.125 32.4809 40.7422 35.8192 38.2808 38.2807C35.8194 40.7421 32.481 42.1249 29 42.1249ZM29 19.6249C27.1458 19.6249 25.3332 20.1747 23.7915 21.2049C22.2498 22.235 21.0482 23.6992 20.3386 25.4122C19.6291 27.1253 19.4434 29.0103 19.8051 30.8289C20.1669 32.6474 21.0598 34.3179 22.3709 35.629C23.682 36.9401 25.3525 37.833 27.171 38.1947C28.9896 38.5565 30.8746 38.3708 32.5877 37.6613C34.3007 36.9517 35.7649 35.7501 36.795 34.2084C37.8252 32.6666 38.375 30.8541 38.375 28.9999C38.375 26.5135 37.3873 24.1289 35.6291 22.3708C33.871 20.6126 31.4864 19.6249 29 19.6249Z" fill="#7EBD2E"/>
</svg>
