<svg width="174" height="77" viewBox="0 0 174 77" fill="none" xmlns="http://www.w3.org/2000/svg">
<path fill-rule="evenodd" clip-rule="evenodd" d="M10.4512 70.3079V74.8472H10.8734V70.6246H13.1959V74.8472H13.6182V70.3079H10.4512Z" fill="#7EBD2E"/>
<path fill-rule="evenodd" clip-rule="evenodd" d="M15.307 76.3252V74.6362V74.3195C15.5182 74.7417 15.8349 74.9529 16.3627 74.9529C17.1017 74.9529 17.8406 74.425 17.8406 73.2638C17.8406 72.2081 17.3128 71.5747 16.3627 71.5747C15.7293 71.5747 15.4126 71.997 15.307 72.3137V71.5747H14.8848V72.2081V76.3252H15.307ZM15.307 73.1582C15.307 72.1025 15.9404 71.7858 16.3627 71.7858C16.785 71.7858 17.4184 72.1025 17.4184 73.1582C17.4184 74.2139 16.785 74.5306 16.3627 74.5306C15.9404 74.5306 15.307 74.2139 15.307 73.1582Z" fill="#7EBD2E"/>
<path fill-rule="evenodd" clip-rule="evenodd" d="M18.2637 73.1581C18.2637 74.2137 18.8971 74.8471 19.8472 74.8471C20.7973 74.8471 21.4307 74.2137 21.4307 73.1581C21.4307 72.1024 20.7973 71.469 19.8472 71.469C18.8971 71.469 18.2637 72.1024 18.2637 73.1581ZM18.6859 73.1581C18.6859 72.5247 19.0026 71.7857 19.8472 71.7857C20.5862 71.7857 21.0084 72.5247 21.0084 73.1581C21.0084 73.7915 20.6917 74.5304 19.8472 74.5304C19.1082 74.5304 18.6859 73.7915 18.6859 73.1581Z" fill="#7EBD2E"/>
<path fill-rule="evenodd" clip-rule="evenodd" d="M22.168 71.469V74.8471H22.6958L24.3849 72.4191L24.596 71.9968V72.4191V74.8471H25.0183V71.469H24.596L22.9069 73.897L22.5902 74.3193V74.0026V71.469H22.168Z" fill="#7EBD2E"/>
<path fill-rule="evenodd" clip-rule="evenodd" d="M26.3911 73.2636H26.7078C27.2357 73.2636 27.6579 73.3692 27.6579 73.897C27.6579 74.3193 27.1301 74.5304 26.8134 74.5304C26.4967 74.5304 26.18 74.4249 25.8633 74.3193V74.7416C26.2856 74.9527 26.6023 74.9527 26.919 74.9527C27.8691 74.9527 28.2913 74.5304 28.2913 74.0026C28.2913 73.3692 27.8691 73.2636 27.6579 73.1581C27.9746 73.0525 28.1858 72.8414 28.1858 72.4191C28.1858 71.8913 27.8691 71.469 27.0245 71.469C26.7078 71.469 26.4967 71.469 26.18 71.6801V71.9968C26.3911 71.8913 26.7078 71.7857 27.0245 71.7857C27.4468 71.7857 27.8691 71.9968 27.8691 72.3135C27.8691 72.4191 27.8691 72.9469 27.1301 72.9469H26.8134V73.2636H26.3911Z" fill="#7EBD2E"/>
<path fill-rule="evenodd" clip-rule="evenodd" d="M29.0312 71.469V74.8471H30.4036C30.5092 74.8471 31.5649 74.8471 31.5649 73.897C31.5649 73.4748 31.3537 73.1581 30.9315 73.0525C31.2482 72.9469 31.3537 72.7358 31.3537 72.4191C31.3537 71.8913 31.037 71.5746 30.2981 71.5746H29.0312V71.469ZM29.3479 71.8913H30.1925C30.7203 71.8913 30.8259 72.208 30.8259 72.4191C30.8259 72.9469 30.1925 72.9469 30.1925 72.9469H29.3479V71.8913ZM29.3479 73.2636H30.1925C30.8259 73.2636 31.037 73.5803 31.037 73.897C31.037 74.2137 30.8259 74.5304 30.2981 74.5304H29.3479V73.2636V73.2636Z" fill="#7EBD2E"/>
<path fill-rule="evenodd" clip-rule="evenodd" d="M32.1973 73.1581C32.1973 74.2137 32.8307 74.8471 33.7808 74.8471C34.7309 74.8471 35.3643 74.2137 35.3643 73.1581C35.3643 72.1024 34.7309 71.469 33.7808 71.469C32.8307 71.469 32.1973 72.1024 32.1973 73.1581ZM32.6195 73.1581C32.6195 72.5247 32.9362 71.7857 33.7808 71.7857C34.5197 71.7857 34.942 72.5247 34.942 73.1581C34.942 73.7915 34.6253 74.5304 33.7808 74.5304C32.9362 74.5304 32.6195 73.7915 32.6195 73.1581Z" fill="#7EBD2E"/>
<path fill-rule="evenodd" clip-rule="evenodd" d="M36.4207 71.469V72.7358C36.4207 73.3692 36.3151 73.897 35.8929 74.4249H35.5762V75.6917H35.9984V74.7416H38.7432V75.6917H39.1655V74.4249H38.6376V71.469H36.4207ZM36.4207 74.5304C36.7374 73.897 36.843 73.5803 36.843 72.8414V71.8913H38.2154V74.5304H36.4207Z" fill="#7EBD2E"/>
<path fill-rule="evenodd" clip-rule="evenodd" d="M42.1215 71.5746C41.8048 71.469 41.4881 71.469 41.277 71.469C40.1157 71.469 39.5879 72.3135 39.5879 73.1581C39.5879 74.2137 40.2213 74.8471 41.277 74.8471C41.5937 74.8471 41.8048 74.8471 42.0159 74.7416V74.4249C41.8048 74.5304 41.4881 74.5304 41.277 74.5304C40.538 74.5304 40.0102 74.1082 40.0102 73.1581C40.0102 72.3135 40.538 71.7857 41.277 71.7857C41.5937 71.7857 41.9104 71.8913 42.0159 71.8913L42.1215 71.5746Z" fill="#7EBD2E"/>
<path fill-rule="evenodd" clip-rule="evenodd" d="M42.2266 71.469V71.8913H43.2822V74.8471H43.7045V71.8913H44.7602V71.469H42.2266Z" fill="#7EBD2E"/>
<path fill-rule="evenodd" clip-rule="evenodd" d="M45.3926 71.469V74.8471H46.7649C46.8705 74.8471 47.9262 74.8471 47.9262 73.897C47.9262 73.4748 47.7151 73.1581 47.2928 73.0525C47.6095 72.9469 47.7151 72.7358 47.7151 72.4191C47.7151 71.8913 47.3984 71.5746 46.6594 71.5746H45.3926V71.469ZM45.8148 71.8913H46.6594C47.1872 71.8913 47.2928 72.208 47.2928 72.4191C47.2928 72.9469 46.6594 72.9469 46.6594 72.9469H45.8148V71.8913ZM45.8148 73.2636H46.6594C47.2928 73.2636 47.5039 73.5803 47.5039 73.897C47.5039 74.2137 47.2928 74.5304 46.7649 74.5304H45.8148V73.2636V73.2636Z" fill="#7EBD2E"/>
<path fill-rule="evenodd" clip-rule="evenodd" d="M48.5605 73.1581C48.5605 74.2137 49.194 74.8471 50.1441 74.8471C51.0942 74.8471 51.7276 74.2137 51.7276 73.1581C51.7276 72.1024 51.0942 71.469 50.1441 71.469C49.194 71.469 48.5605 72.1024 48.5605 73.1581ZM48.9828 73.1581C48.9828 72.5247 49.2995 71.7857 50.1441 71.7857C50.883 71.7857 51.3053 72.5247 51.3053 73.1581C51.3053 73.7915 50.9886 74.5304 50.1441 74.5304C49.2995 74.5304 48.9828 73.7915 48.9828 73.1581Z" fill="#7EBD2E"/>
<path fill-rule="evenodd" clip-rule="evenodd" d="M54.5787 71.469H53.9453V74.8471H54.3676V72.4191V71.8913L54.5787 72.4191L55.6344 74.8471H55.9511L57.0068 72.4191L57.2179 71.8913L57.1123 72.4191V74.8471H57.5346V71.469H57.0068L55.9511 74.0026L55.74 74.4249L55.6344 74.0026L54.5787 71.469Z" fill="#7EBD2E"/>
<path fill-rule="evenodd" clip-rule="evenodd" d="M61.1257 73.2636V73.1581C61.1257 72.5247 61.0201 71.469 59.7533 71.469C58.9088 71.469 58.2754 72.1024 58.2754 73.1581C58.2754 74.3193 58.9088 74.9527 59.8589 74.9527C60.1756 74.9527 60.4923 74.9527 60.9146 74.7416V74.3193C60.5979 74.5304 60.2812 74.5304 59.9645 74.5304C59.0144 74.5304 58.8032 73.6859 58.8032 73.2636H61.1257ZM58.8032 72.9469C58.8032 72.4191 59.1199 71.7857 59.8589 71.7857C60.7034 71.7857 60.809 72.6302 60.809 72.9469H58.8032Z" fill="#7EBD2E"/>
<path fill-rule="evenodd" clip-rule="evenodd" d="M61.334 71.469V71.8913H62.3897V74.8471H62.8119V71.8913H63.8676V71.469H61.334Z" fill="#7EBD2E"/>
<path fill-rule="evenodd" clip-rule="evenodd" d="M64.3969 71.9972C64.7136 71.786 65.0303 71.786 65.347 71.786C66.086 71.786 66.086 72.4194 66.086 72.6306V72.7361H65.8748C65.2414 72.7361 63.9746 72.7361 63.9746 73.8974C63.9746 74.4252 64.3969 74.8475 65.0303 74.8475C65.347 74.8475 65.8748 74.7419 66.086 74.2141V74.7419H66.4027V74.003V72.6306C66.4027 72.2083 66.2971 71.3638 65.2414 71.3638C64.8191 71.3638 64.5024 71.4693 64.2913 71.5749V71.9972H64.3969ZM66.1915 73.1584V73.3695C66.1915 74.1085 65.7693 74.5308 65.1358 74.5308C64.7136 74.5308 64.5024 74.2141 64.5024 73.8974C64.5024 73.264 65.2414 73.1584 65.8748 73.1584H66.1915Z" fill="#7EBD2E"/>
<path fill-rule="evenodd" clip-rule="evenodd" d="M67.9851 71.4693V72.4194C67.9851 74.3197 67.9851 74.5308 67.4572 74.5308C67.3517 74.5308 67.3517 74.5308 67.2461 74.5308V74.8475C67.3517 74.8475 67.4572 74.8475 67.5628 74.8475C68.4073 74.8475 68.4073 74.003 68.4073 72.4194V71.786H69.7797V74.7419H70.202V71.3638H67.9851V71.4693Z" fill="#7EBD2E"/>
<path fill-rule="evenodd" clip-rule="evenodd" d="M71.4694 71.4693V72.4194C71.4694 74.3197 71.4694 74.5308 70.9416 74.5308C70.836 74.5308 70.836 74.5308 70.7305 74.5308V74.8475C70.836 74.8475 70.9416 74.8475 71.0472 74.8475C71.8917 74.8475 71.8917 74.003 71.8917 72.4194V71.786H73.2641V74.7419H73.6863V71.3638H71.4694V71.4693Z" fill="#7EBD2E"/>
<path fill-rule="evenodd" clip-rule="evenodd" d="M74.5312 73.1581C74.5312 74.2137 75.1647 74.8471 76.1148 74.8471C77.0649 74.8471 77.6983 74.2137 77.6983 73.1581C77.6983 72.1024 77.0649 71.469 76.1148 71.469C75.0591 71.469 74.5312 72.1024 74.5312 73.1581ZM74.9535 73.1581C74.9535 72.5247 75.2702 71.7857 76.1148 71.7857C76.8537 71.7857 77.276 72.5247 77.276 73.1581C77.276 73.7915 76.9593 74.5304 76.1148 74.5304C75.2702 74.5304 74.9535 73.7915 74.9535 73.1581Z" fill="#7EBD2E"/>
<path fill-rule="evenodd" clip-rule="evenodd" d="M78.4355 71.469V74.8471H78.8578V71.8913H80.5469V74.8471H80.9692V71.469H78.4355Z" fill="#7EBD2E"/>
<path fill-rule="evenodd" clip-rule="evenodd" d="M82.3444 71.4693V72.4194C82.3444 74.3197 82.3444 74.5308 81.8166 74.5308C81.711 74.5308 81.711 74.5308 81.6055 74.5308V74.8475C81.711 74.8475 81.8166 74.8475 81.9222 74.8475C82.7667 74.8475 82.7667 74.003 82.7667 72.4194V71.786H84.1391V74.7419H84.5614V71.3638H82.3444V71.4693Z" fill="#7EBD2E"/>
<path fill-rule="evenodd" clip-rule="evenodd" d="M85.7211 71.9972C86.0378 71.786 86.3545 71.786 86.6712 71.786C87.4102 71.786 87.4102 72.4194 87.4102 72.6306V72.7361H87.199C86.5656 72.7361 85.2988 72.7361 85.2988 73.8974C85.2988 74.4252 85.7211 74.8475 86.3545 74.8475C86.6712 74.8475 87.199 74.7419 87.4102 74.2141V74.7419H87.7269V74.003V72.6306C87.7269 72.2083 87.6213 71.3638 86.5656 71.3638C86.1434 71.3638 85.8267 71.4693 85.6155 71.5749V71.9972H85.7211ZM87.4102 73.1584V73.3695C87.4102 74.1085 86.9879 74.5308 86.3545 74.5308C85.9322 74.5308 85.7211 74.2141 85.7211 73.8974C85.7211 73.264 86.4601 73.1584 87.0935 73.1584H87.4102Z" fill="#7EBD2E"/>
<path fill-rule="evenodd" clip-rule="evenodd" d="M91.2094 71.5746C90.8927 71.469 90.576 71.469 90.3649 71.469C89.2036 71.469 88.6758 72.3135 88.6758 73.1581C88.6758 74.2137 89.3092 74.8471 90.3649 74.8471C90.6816 74.8471 90.8927 74.8471 91.1038 74.7416V74.4249C90.8927 74.5304 90.576 74.5304 90.3649 74.5304C89.6259 74.5304 89.098 74.1082 89.098 73.1581C89.098 72.3135 89.6259 71.7857 90.3649 71.7857C90.6816 71.7857 90.9983 71.8913 91.1038 71.8913L91.2094 71.5746Z" fill="#7EBD2E"/>
<path fill-rule="evenodd" clip-rule="evenodd" d="M91.3164 71.469V71.8913H92.3721V74.8471H92.7943V71.8913H93.85V71.469H91.3164Z" fill="#7EBD2E"/>
<path fill-rule="evenodd" clip-rule="evenodd" d="M94.377 71.469V74.8471H94.9048L96.5939 72.4191L96.805 71.9968V72.4191V74.8471H97.2273V71.469H96.805L95.0104 73.897L94.7992 74.3193V74.0026V71.469H94.377Z" fill="#7EBD2E"/>
<path fill-rule="evenodd" clip-rule="evenodd" d="M98.2812 71.469V74.8471H98.7035V73.1581L100.393 74.8471H100.92L99.1258 73.0525L100.815 71.469H100.287L98.7035 72.9469V71.469H98.2812Z" fill="#7EBD2E"/>
<path fill-rule="evenodd" clip-rule="evenodd" d="M101.133 73.1581C101.133 74.2137 101.766 74.8471 102.716 74.8471C103.666 74.8471 104.3 74.2137 104.3 73.1581C104.3 72.1024 103.666 71.469 102.716 71.469C101.766 71.469 101.133 72.1024 101.133 73.1581ZM101.555 73.1581C101.555 72.5247 101.872 71.7857 102.716 71.7857C103.455 71.7857 103.878 72.5247 103.878 73.1581C103.878 73.7915 103.561 74.5304 102.716 74.5304C101.872 74.5304 101.555 73.7915 101.555 73.1581Z" fill="#7EBD2E"/>
<path fill-rule="evenodd" clip-rule="evenodd" d="M105.039 71.469V74.8471H106.411C106.517 74.8471 107.573 74.8471 107.573 73.897C107.573 73.4748 107.362 73.1581 106.939 73.0525C107.256 72.9469 107.362 72.7358 107.362 72.4191C107.362 71.8913 107.045 71.5746 106.306 71.5746H105.039V71.469ZM105.461 71.8913H106.306C106.834 71.8913 106.939 72.208 106.939 72.4191C106.939 72.9469 106.306 72.9469 106.306 72.9469H105.461V71.8913ZM105.461 73.2636H106.306C106.939 73.2636 107.15 73.5803 107.15 73.897C107.15 74.2137 106.939 74.5304 106.411 74.5304H105.461V73.2636V73.2636Z" fill="#7EBD2E"/>
<path fill-rule="evenodd" clip-rule="evenodd" d="M108.418 71.469V74.8471H109.685C109.896 74.8471 110.846 74.8471 110.846 73.7915C110.846 72.8414 109.896 72.7358 109.685 72.7358H108.84V71.469H108.418ZM108.84 73.1581H109.685C109.896 73.1581 110.529 73.1581 110.529 73.7915C110.529 74.4249 109.896 74.4249 109.685 74.4249H108.84V73.1581ZM111.479 71.469V74.8471H111.902V71.469H111.479Z" fill="#7EBD2E"/>
<path fill-rule="evenodd" clip-rule="evenodd" d="M112.746 71.469L113.802 73.0525L112.641 74.8471H113.168L113.907 73.6859L114.119 73.3692L114.224 73.6859L114.963 74.8471H115.491L114.33 73.0525L115.385 71.469H114.858L114.224 72.4191L114.119 72.7358L113.907 72.4191L113.274 71.469H112.746Z" fill="#7EBD2E"/>
<path fill-rule="evenodd" clip-rule="evenodd" d="M117.707 71.469V74.8471H118.235L119.924 72.4191L120.135 71.9968V72.4191V74.8471H120.557V71.469H120.135L118.446 73.897L118.235 74.3193H118.129V74.0026V71.469H117.707Z" fill="#7EBD2E"/>
<path fill-rule="evenodd" clip-rule="evenodd" d="M123.513 71.469V72.7358C123.513 73.3692 123.407 73.897 122.985 74.4249H122.668V75.6917H123.09V74.7416H125.835V75.6917H126.257V74.4249H125.729V71.469H123.513ZM123.513 74.5304C123.829 73.897 123.935 73.5803 123.935 72.8414V71.8913H125.307V74.5304H123.513Z" fill="#7EBD2E"/>
<path fill-rule="evenodd" clip-rule="evenodd" d="M129.53 73.2636V73.1581C129.53 72.5247 129.424 71.469 128.158 71.469C127.313 71.469 126.68 72.1024 126.68 73.1581C126.68 74.3193 127.313 74.9527 128.263 74.9527C128.58 74.9527 128.897 74.9527 129.319 74.7416V74.3193C129.002 74.5304 128.685 74.5304 128.369 74.5304C127.419 74.5304 127.208 73.6859 127.208 73.2636H129.53ZM127.102 72.9469C127.102 72.4191 127.419 71.7857 128.158 71.7857C129.002 71.7857 129.108 72.6302 129.108 72.9469H127.102Z" fill="#7EBD2E"/>
<path fill-rule="evenodd" clip-rule="evenodd" d="M130.692 76.3252V74.6362V74.3195C130.903 74.7417 131.22 74.9529 131.747 74.9529C132.486 74.9529 133.225 74.425 133.225 73.2638C133.225 72.2081 132.698 71.5747 131.747 71.5747C131.114 71.5747 130.797 71.997 130.692 72.3137V71.5747H130.27V72.2081V76.3252H130.692ZM130.692 73.1582C130.692 72.1025 131.325 71.7858 131.747 71.7858C132.17 71.7858 132.803 72.1025 132.803 73.1582C132.803 74.2139 132.17 74.5306 131.747 74.5306C131.325 74.5306 130.692 74.2139 130.692 73.1582Z" fill="#7EBD2E"/>
<path fill-rule="evenodd" clip-rule="evenodd" d="M136.497 73.2636V73.1581C136.497 72.5247 136.391 71.469 135.124 71.469C134.28 71.469 133.646 72.1024 133.646 73.1581C133.646 74.3193 134.28 74.9527 135.23 74.9527C135.547 74.9527 135.863 74.9527 136.286 74.7416V74.3193C135.969 74.5304 135.652 74.5304 135.336 74.5304C134.385 74.5304 134.174 73.6859 134.174 73.2636H136.497ZM134.174 72.9469C134.174 72.4191 134.491 71.7857 135.23 71.7857C136.075 71.7857 136.18 72.6302 136.18 72.9469H134.174Z" fill="#7EBD2E"/>
<path fill-rule="evenodd" clip-rule="evenodd" d="M137.344 71.469V74.8471H138.716C138.822 74.8471 139.877 74.8471 139.877 73.897C139.877 73.4748 139.666 73.1581 139.244 73.0525C139.561 72.9469 139.666 72.7358 139.666 72.4191C139.666 71.8913 139.35 71.5746 138.611 71.5746H137.344V71.469ZM137.766 71.8913H138.611C139.138 71.8913 139.244 72.208 139.244 72.4191C139.244 72.9469 138.611 72.9469 138.611 72.9469H137.766V71.8913ZM137.766 73.2636H138.611C139.244 73.2636 139.455 73.5803 139.455 73.897C139.455 74.2137 139.244 74.5304 138.716 74.5304H137.766V73.2636V73.2636Z" fill="#7EBD2E"/>
<path fill-rule="evenodd" clip-rule="evenodd" d="M142.938 71.469H141.671C140.932 71.469 140.615 71.9968 140.615 72.4191C140.615 73.0525 141.038 73.2636 141.249 73.3692L140.51 74.8471H141.038L141.777 73.4748H142.621V74.8471H143.043V71.469H142.938ZM142.516 71.8913V73.1581H141.671C141.143 73.1581 140.932 72.8414 140.932 72.5247C140.932 72.208 141.143 71.8913 141.671 71.8913H142.516V71.8913Z" fill="#7EBD2E"/>
<path fill-rule="evenodd" clip-rule="evenodd" d="M143.992 71.469V74.8471H144.414V73.2636H146.209V74.8471H146.631V71.469H146.209V72.9469H144.414V71.469H143.992Z" fill="#7EBD2E"/>
<path fill-rule="evenodd" clip-rule="evenodd" d="M147.689 71.469V74.8471H148.112V73.2636H149.906V74.8471H150.329V71.469H149.906V72.9469H148.112V71.469H147.689Z" fill="#7EBD2E"/>
<path fill-rule="evenodd" clip-rule="evenodd" d="M151.275 71.469V74.8471H152.542C152.753 74.8471 153.703 74.8471 153.703 73.7915C153.703 72.8414 152.753 72.7358 152.542 72.7358H151.698V71.469H151.275ZM151.698 73.1581H152.542C152.753 73.1581 153.387 73.1581 153.387 73.7915C153.387 74.4249 152.753 74.4249 152.542 74.4249H151.698V73.1581ZM154.442 71.469V74.8471H154.865V71.469H154.442Z" fill="#7EBD2E"/>
<path fill-rule="evenodd" clip-rule="evenodd" d="M155.607 71.469L156.769 73.0525L155.607 74.8471H156.03L156.769 73.6859L156.98 73.3692L157.191 73.6859L157.93 74.8471H158.458L157.191 73.0525L158.247 71.469H157.719L157.191 72.4191L156.98 72.7358L156.769 72.4191L156.135 71.469H155.607Z" fill="#7EBD2E"/>
<path fill-rule="evenodd" clip-rule="evenodd" d="M160.461 73.1581C160.461 74.2137 161.094 74.8471 162.044 74.8471C162.995 74.8471 163.628 74.2137 163.628 73.1581C163.628 72.1024 162.995 71.469 162.044 71.469C161.094 71.469 160.461 72.1024 160.461 73.1581ZM160.883 73.1581C160.883 72.5247 161.2 71.7857 162.044 71.7857C162.889 71.7857 163.206 72.5247 163.206 73.1581C163.206 73.7915 162.889 74.5304 162.044 74.5304C161.2 74.5304 160.883 73.7915 160.883 73.1581Z" fill="#7EBD2E"/>
<path fill-rule="evenodd" clip-rule="evenodd" d="M164.367 71.469V74.8471H164.789V73.1581L166.479 74.8471H167.006L165.212 73.0525L166.795 71.469H166.267L164.789 72.9469V71.469H164.367Z" fill="#7EBD2E"/>
<path fill-rule="evenodd" clip-rule="evenodd" d="M167.113 73.1581C167.113 74.2137 167.747 74.8471 168.697 74.8471C169.647 74.8471 170.28 74.2137 170.28 73.1581C170.28 72.1024 169.647 71.469 168.697 71.469C167.747 71.469 167.113 72.1024 167.113 73.1581ZM167.641 73.1581C167.641 72.5247 167.958 71.7857 168.802 71.7857C169.541 71.7857 169.964 72.5247 169.964 73.1581C169.964 73.7915 169.647 74.5304 168.802 74.5304C167.958 74.5304 167.641 73.7915 167.641 73.1581Z" fill="#7EBD2E"/>
<path fill-rule="evenodd" clip-rule="evenodd" d="M171.125 71.469V74.8471H171.442V73.2636H173.342V74.8471H173.764V71.469H173.342V72.9469H171.442V71.469H171.125Z" fill="#7EBD2E"/>
<path d="M37.6872 43.8105C32.9366 43.8105 29.6641 47.1887 29.6641 52.0448C29.6641 56.7953 33.1478 60.3846 37.6872 60.3846C42.4377 60.3846 45.8159 57.0065 45.8159 52.1504C45.8159 47.0831 42.5433 43.8105 37.6872 43.8105ZM43.4934 51.9392C43.4934 55.5285 40.9598 58.1677 37.6872 58.1677C34.0979 58.1677 31.881 55.0007 31.881 51.9392C31.881 48.8778 33.8868 45.8163 37.5816 45.8163C41.4876 45.8163 43.4934 48.9833 43.4934 51.9392Z" fill="#7EBD2E"/>
<path d="M44.3379 44.0217V46.1331H49.8274V59.9624H52.0443V46.1331H57.4282V44.0217H44.3379Z" fill="#7EBD2E"/>
<path d="M88.6759 43.8105C87.198 43.8105 85.8256 44.1273 84.4532 44.7607V44.0217H82.2363V67.8799H84.4532V59.3289C85.8256 59.9623 87.0924 60.279 88.5704 60.279C93.2153 60.279 96.699 56.6898 96.699 51.9392C96.699 47.1887 93.4265 43.8105 88.6759 43.8105ZM94.3766 52.1504C94.3766 55.7397 91.9485 58.1677 88.4648 58.1677C87.0924 58.1677 85.9312 57.851 84.5588 57.112V46.9776C85.7201 46.3442 86.7757 45.9219 88.2537 45.9219C91.843 45.9219 94.3766 48.4555 94.3766 52.1504Z" fill="#7EBD2E"/>
<path d="M109.263 44.0217L99.551 56.3731V44.0217H97.2285V59.9624H99.0232L108.735 47.8221V59.9624H110.952V44.0217H109.263Z" fill="#7EBD2E"/>
<path d="M118.553 43.8105C117.075 43.8105 115.703 44.1273 114.33 44.7607V44.0217H112.113V67.8799H114.33V59.3289C115.703 59.9623 116.969 60.279 118.447 60.279C123.092 60.279 126.576 56.6898 126.576 51.9392C126.576 47.1887 123.303 43.8105 118.553 43.8105ZM124.148 52.1504C124.148 55.7397 121.72 58.1677 118.236 58.1677C116.864 58.1677 115.703 57.851 114.33 57.112V46.9776C115.491 46.3442 116.547 45.9219 118.025 45.9219C121.72 45.9219 124.148 48.4555 124.148 52.1504Z" fill="#7EBD2E"/>
<path d="M134.492 43.8105C129.741 43.8105 126.469 47.1887 126.469 52.0448C126.469 56.7953 129.952 60.3846 134.492 60.3846C139.242 60.3846 142.621 57.0065 142.621 52.1504C142.621 47.0831 139.348 43.8105 134.492 43.8105ZM140.298 51.9392C140.298 55.5285 137.764 58.1677 134.492 58.1677C130.903 58.1677 128.686 55.0007 128.686 51.9392C128.686 48.8778 130.691 45.8163 134.386 45.8163C138.292 45.8163 140.298 48.9833 140.298 51.9392Z" fill="#7EBD2E"/>
<path d="M156.979 57.9566V44.0217H146.423V48.4556C146.423 52.5727 144.839 55.423 143.15 57.9566H141.566V65.1352H143.678V59.9624H156.346V65.1352H158.457V57.9566H156.979V57.9566ZM154.762 46.1331V57.851H145.789C147.161 55.7397 148.745 52.256 148.745 48.5611V46.0275H154.762V46.1331Z" fill="#7EBD2E"/>
<path d="M163.417 50.7782H160.356V44.1274H158.139V60.0681H163.417C167.112 60.0681 169.223 58.379 169.223 55.4231C169.223 52.3617 167.112 50.7782 163.417 50.7782ZM166.901 55.3176C166.901 57.2178 165.951 57.8512 163.1 57.8512H160.356V52.784H163.1C165.845 52.784 166.901 53.5229 166.901 55.3176Z" fill="#7EBD2E"/>
<path d="M173.764 44.4441H171.547V60.068H173.764V44.4441Z" fill="#7EBD2E"/>
<path d="M70.2013 44.0217H67.9844V59.9624H70.2013V44.0217Z" fill="#7EBD2E"/>
<path d="M70.3069 44.0217H67.9844V59.9624H70.3069V46.1331H78.8578V59.9624H81.0747V44.0217H70.3069Z" fill="#7EBD2E"/>
<path fill-rule="evenodd" clip-rule="evenodd" d="M70.0966 26.6032C70.0966 18.0523 63.1292 8.34009 49.7221 8.34009C36.3151 8.34009 29.3477 17.9467 29.3477 26.6032C29.3477 35.682 36.7374 44.8664 49.7221 44.8664C62.4958 44.8664 70.0966 35.7876 70.0966 26.6032ZM60.9123 26.6032C60.9123 33.1484 56.3729 37.4767 49.7221 37.4767C42.9658 37.4767 38.4264 33.1484 38.4264 26.6032C38.4264 20.0581 42.9658 15.7298 49.7221 15.7298C56.4784 15.7298 60.9123 20.0581 60.9123 26.6032Z" fill="#7EBD2E"/>
<path fill-rule="evenodd" clip-rule="evenodd" d="M76.852 22.8028V8.86792H67.9844V44.4441H76.852V29.348H80.1246C84.9807 29.348 86.4587 36.9488 90.2591 44.4441H99.9713C94.7985 33.0428 92.8983 27.0255 87.831 26.3921C90.4702 25.0197 91.8426 22.3805 92.5816 19.3191C93.215 16.4688 94.904 15.5187 96.382 15.5187C97.3321 15.5187 97.9655 15.6242 98.4933 15.7298V8.97349C97.3321 8.65679 95.643 8.34009 93.6372 8.34009C89.9424 8.34009 86.4587 10.9793 85.5085 15.6242C84.3473 21.1137 82.5527 22.8028 79.3856 22.8028H76.852V22.8028Z" fill="#7EBD2E"/>
<path fill-rule="evenodd" clip-rule="evenodd" d="M134.705 8.86792H125.837V23.1195H108.102V8.86792H99.2344V44.4441H108.102V29.9814H125.837V44.4441H134.705V8.86792Z" fill="#7EBD2E"/>
<path fill-rule="evenodd" clip-rule="evenodd" d="M173.764 44.1272L158.035 8.76221H147.795L133.438 44.3384H142.833L145.472 37.2654H161.413L164.369 44.3384H173.764V44.1272V44.1272ZM147.795 31.1425L152.967 17.3132L158.668 31.1425H147.795Z" fill="#7EBD2E"/>
<path d="M31.1433 19.6357H13.6191V20.6914H31.1433V19.6357Z" fill="#7EBD2E"/>
<path d="M31.0377 30.5088H13.6191V31.5645H31.0377V30.5088Z" fill="#7EBD2E"/>
<path d="M24.7027 45.6051L24.1749 44.8661L23.2248 45.4995C24.7027 41.8046 25.6528 37.8987 26.0751 33.7815L27.5531 32.8314L27.0252 32.0924L26.1807 32.6203C26.2863 31.7757 26.2863 30.9312 26.2863 29.9811C26.2863 24.4916 25.2306 19.1077 23.1192 14.146L24.0693 13.5126L23.4359 12.7736L22.5914 13.3015C21.5357 10.8734 20.1634 8.55095 18.5798 6.33404L19.5299 5.70063L19.0021 4.96166L18.1576 5.59506C16.8908 4.01156 15.624 2.42805 14.146 0.950105V0H13.1959V1.05567C11.718 2.53361 10.4512 4.01156 9.18435 5.59506L8.23425 4.96166L7.70641 5.70063L8.55095 6.33404C6.96744 8.55095 5.70063 10.8734 4.53939 13.3015L3.69485 12.7736L3.16702 13.5126L4.11713 14.146C3.06145 16.6796 2.21692 19.4244 1.68908 22.1691L0.950107 21.6413L0.527836 22.4858L1.68908 23.2248C1.26681 25.4417 1.16124 27.7642 1.16124 29.9811C1.16124 30.8256 1.16124 31.6702 1.26681 32.5147L0.527836 31.9869L0 32.7259L1.37237 33.676C1.79464 37.6875 2.74475 41.6991 4.22269 45.3939L3.27259 44.7605L2.74475 45.4995L4.96166 47.083C6.96744 51.5168 9.81776 55.5284 13.407 59.0121V61.7569H14.3572V58.9065C17.8409 55.4228 20.6912 51.4113 22.697 47.083L24.7027 45.6051ZM21.7469 46.5552L14.146 51.8335V42.1213L25.0194 34.5205C24.5972 38.7432 23.4359 42.7547 21.7469 46.5552ZM25.2306 30.0867C25.2306 31.1423 25.125 32.3036 25.125 33.3593L14.146 41.0657V20.48L22.2747 14.7794C24.2805 19.5299 25.2306 24.7027 25.2306 30.0867ZM21.8524 13.9349L14.146 19.3188V9.60662L17.9464 6.96744C19.4244 9.07878 20.7968 11.5068 21.8524 13.9349ZM17.313 6.22847L14.0404 8.55095V2.42805C15.3073 3.58929 16.3629 4.85609 17.313 6.22847ZM13.1959 2.42805V8.44538L9.92333 6.22847C10.8734 4.85609 12.0347 3.58929 13.1959 2.42805ZM9.39549 6.96744L13.1959 9.60662V19.3188L5.38393 13.8293C6.43961 11.4013 7.81198 9.07878 9.39549 6.96744ZM4.96166 14.7794L13.0903 20.48V30.1922L2.53362 22.8025C3.16702 20.0578 3.90599 17.313 4.96166 14.7794ZM2.00578 30.0867C2.00578 27.9753 2.21691 25.864 2.53362 23.8582L13.3015 31.3535V41.0657L2.21692 33.3593C2.00578 32.198 2.00578 31.1423 2.00578 30.0867ZM2.21692 34.5205L13.1959 42.2269V51.9391L5.4895 46.5552C3.80042 42.7547 2.74475 38.7432 2.21692 34.5205ZM6.33404 48.2442L13.1959 52.9948V57.7453C10.4512 54.895 8.12868 51.728 6.33404 48.2442ZM14.146 57.6397V52.9948L20.9023 48.2442C19.1077 51.6224 16.8908 54.7894 14.146 57.6397Z" fill="#7EBD2E"/>
<path d="M30.0862 31.5645H39.4817C39.3762 31.2478 39.165 30.9311 39.0595 30.5088H29.7695C29.8751 30.9311 29.9807 31.2478 30.0862 31.5645Z" fill="white"/>
<path d="M30.4023 20.6914H40.009C40.2201 20.3747 40.4312 19.9524 40.7479 19.6357H30.8246C30.6135 20.058 30.5079 20.3747 30.4023 20.6914Z" fill="white"/>
</svg>
